Coordinates
version=1
nRows=17
nColumns=24
inDegrees=yes

Units are S.I. units (second, meters, Newtons, ...)
Angles are in degrees.

endheader
time	pelvis_tilt	pelvis_list	pelvis_rotation	pelvis_tx	pelvis_ty	pelvis_tz	hip_flexion_r	hip_adduction_r	hip_rotation_r	knee_angle_r	ankle_angle_r	subtalar_angle_r	mtp_angle_r	hip_flexion_l	hip_adduction_l	hip_rotation_l	knee_angle_l	ankle_angle_l	subtalar_angle_l	mtp_angle_l	lumbar_extension	lumbar_bending	lumbar_rotation
      5.13000000	      0.65842453	      4.70025382	      5.21263015	     -1.41074994	      0.92018103	      0.21633053	     25.83448208	     -3.20812569	    -12.40114857	     -8.54700615	      8.15125822	     12.61144584	      0.00000000	    -19.93920652	      9.65383562	      4.79632948	     -8.06905222	     18.21075476	     -7.74287686	      0.00000000	    -26.75936135	     -3.46804019	     -7.02461743
      5.14000000	      0.73446955	      4.36650214	      4.82414033	     -1.39536109	      0.91830769	      0.21647035	     26.26423000	     -2.44618911	    -10.68758514	    -10.77471068	      7.58155497	     10.37576686	      0.00000000	    -20.18693222	      9.28267970	      3.88683951	     -9.53303680	     18.09088558	     -6.77085780	      0.00000000	    -26.50034478	     -3.04843206	     -6.44986932
      5.15000000	      0.81143539	      3.92142999	      4.39410979	     -1.37976858	      0.91673361	      0.21670404	     26.62334501	     -1.50949095	     -8.59242311	    -12.92882562	      6.57218804	      7.71928703	      0.00000000	    -20.30604193	      8.78795733	      2.85164255	    -11.21779042	     17.76660648	     -5.70779901	      0.00000000	    -26.21954351	     -2.49640125	     -5.81565891
      5.16000000	      0.92967671	      3.39271923	      3.93506683	     -1.36399074	      0.91558142	      0.21710982	     26.87288090	     -0.42697485	     -6.30500513	    -15.00821328	      5.32275010	      4.88098977	      0.00000000	    -20.31249407	      8.16589662	      1.58756261	    -13.17367676	     17.18522461	     -4.42431855	      0.00000000	    -25.98556529	     -1.86959248	     -5.10223933
      5.17000000	      1.12811158	      2.80748744	      3.45091919	     -1.34808691	      0.91491169	      0.21762111	     26.97763165	      0.75515747	     -4.02570625	    -17.03675540	      4.01214000	      2.09633882	      0.00000000	    -20.23978876	      7.43302067	      0.18354489	    -15.41585030	     16.29026819	     -2.95254101	      0.00000000	    -25.85895593	     -1.17721432	     -4.38872964
      5.18000000	      1.42087917	      2.19124782	      2.98361035	     -1.33207510	      0.91473337	      0.21816731	     26.89524812	      1.97725149	     -1.93535719	    -18.99945811	      2.88068316	     -0.43987169	      0.00000000	    -20.07818694	      6.58714742	     -1.34114992	    -17.98529235	     15.01595389	     -1.32090264	      0.00000000	    -25.86150533	     -0.43391111	     -3.70409844
      5.19000000	      1.81621972	      1.57350202	      2.56420775	     -1.31598046	      0.91503784	      0.21870058	     26.58309243	      3.17661663	     -0.17615448	    -20.85670132	      2.15003750	     -2.57881766	      0.00000000	    -19.82075220	      5.63062569	     -2.95041847	    -20.88859821	     13.26555713	      0.42973716	      0.00000000	    -26.00106518	      0.32884391	     -3.08815648
      5.20000000	      2.25914226	      0.96839264	      2.23713144	     -1.29989005	      0.91572579	      0.21915121	     26.07431771	      4.29733366	      1.15970883	    -22.55741498	      1.95606422	     -4.25399226	      0.00000000	    -19.39296040	      4.56216716	     -4.50998462	    -24.11229719	     10.97003847	      2.15291687	      0.00000000	    -26.21488321	      1.10523621	     -2.58005920
      5.21000000	      2.72117105	      0.39115095	      2.02260198	     -1.28395270	      0.91672917	      0.21948481	     25.38434506	      5.30060342	      2.05727381	    -24.03947734	      2.31375745	     -5.50091583	      0.00000000	    -18.75551739	      3.39704114	     -5.92294236	    -27.60888805	      8.11050228	      3.69438886	      0.00000000	    -26.48563114	      1.87961171	     -2.19524883
      5.22000000	      3.03040511	     -0.15173256	      1.97680874	     -1.26832203	      0.91780569	      0.21956428	     24.71928434	      6.12345226	      2.47456508	    -25.30660900	      3.21850155	     -6.16843409	      0.00000000	    -17.70201872	      2.15625314	     -7.01442460	    -31.35034800	      4.77893169	      4.94714656	      0.00000000	    -26.61175687	      2.66922302	     -1.99580196
      5.23000000	      3.27354644	     -0.65552147	      1.99218267	     -1.25313895	      0.91900079	      0.21964054	     23.98283655	      6.83595262	      2.62846151	    -26.29387170	      4.41653895	     -6.59497232	      0.00000000	    -16.35666722	      0.90115166	     -7.84950002	    -35.20756055	      1.07489217	      5.73230578	      0.00000000	    -26.72297732	      3.40276359	     -1.88020743
      5.24000000	      3.41037528	     -1.24560233	      2.05782156	     -1.23824667	      0.92024230	      0.21964825	     23.21124316	      7.55470327	      2.52695717	    -26.96880084	      5.73417815	     -6.73074609	      0.00000000	    -14.71901494	     -0.46284595	     -8.43824449	    -39.09896632	     -2.71132451	      6.15698411	      0.00000000	    -26.71859651	      4.23754148	     -1.71386390
      5.25000000	      3.09318955	     -1.70410608	      2.35029129	     -1.22410276	      0.92105225	      0.21921110	     22.89549506	      7.93945466	      1.96986118	    -27.50239657	      7.22561354	     -6.38853989	      0.00000000	    -12.31186616	     -1.65405695	     -8.41265290	    -43.10164498	     -6.34471262	      6.11887945	      0.00000000	    -26.25164454	      5.00102668	     -1.87254033
      5.26000000	      2.75040222	     -2.23036680	      2.58763700	     -1.21026031	      0.92189229	      0.21881778	     22.48894368	      8.37807442	      1.37989081	    -27.76042269	      8.64737456	     -5.94928287	      0.00000000	     -9.76978854	     -2.82864730	     -8.27520786	    -46.98418476	     -9.57214121	      5.66851118	      0.00000000	    -25.76418331	      5.78980380	     -1.90377571
      5.27000000	      2.25828747	     -2.76695954	      2.77682655	     -1.19677334	      0.92257637	      0.21843959	     22.17069140	      8.80348899	      0.76151081	    -27.82768318	      9.96198014	     -5.39013297	      0.00000000	     -6.96370873	     -3.91588841	     -8.02182552	    -50.75170588	    -12.13427864	      4.91127102	      0.00000000	    -25.12178975	      6.54922097	     -1.87942352
      5.28000000	      1.75973538	     -3.31148405	      2.91592785	     -1.18354471	      0.92333676	      0.21808935	     21.77427250	      9.24482793	      0.20377321	    -27.69647383	     11.10720630	     -4.82961175	      0.00000000	     -4.10240276	     -4.92450887	     -7.71725404	    -54.31808500	    -13.91365159	      3.86667172	      0.00000000	    -24.49404846	      7.27682663	     -1.79473672
      5.29000000	      1.25484850	     -3.82135580	      2.94275147	     -1.17047892	      0.92421161	      0.21788024	     21.30767098	      9.69284945	     -0.21179943	    -27.40918736	     12.07557548	     -4.30415998	      0.00000000	     -1.24822395	     -5.82821094	     -7.47012642	    -57.60564921	    -14.83667862	      2.63688523	      0.00000000	    -23.88171515	      7.89816636	     -1.55920271
